<svg width="158" height="38" viewBox="0 0 158 38" fill="none" xmlns="http://www.w3.org/2000/svg">
<path d="M41.128 31V7.752C42.2373 7.528 43.3787 7.352 44.552 7.224C45.736 7.096 46.984 7.032 48.296 7.032C51.816 7.032 54.4613 7.72 56.232 9.096C58.0133 10.4613 58.904 12.6267 58.904 15.592C58.904 18.3867 58.04 20.5093 56.312 21.96C54.5947 23.4107 52.0293 24.136 48.616 24.136C48.2107 24.136 47.8267 24.1307 47.464 24.12C47.1013 24.0987 46.7227 24.072 46.328 24.04V31H41.128ZM48.68 20.232C50.4613 20.232 51.768 19.8747 52.6 19.16C53.432 18.4347 53.848 17.256 53.848 15.624C53.848 13.9813 53.432 12.792 52.6 12.056C51.7787 11.3093 50.504 10.936 48.776 10.936C48.296 10.936 47.864 10.952 47.48 10.984C47.096 11.0053 46.712 11.0533 46.328 11.128V20.088C46.7227 20.1307 47.1013 20.168 47.464 20.2C47.8267 20.2213 48.232 20.232 48.68 20.232ZM70.7985 31.304C68.4945 31.304 66.6065 30.936 65.1345 30.2C63.6625 29.464 62.5745 28.3493 61.8705 26.856C61.1665 25.352 60.8145 23.464 60.8145 21.192V7.32H65.9985V21.704C65.9985 23.5813 66.3985 24.9413 67.1985 25.784C67.9985 26.6267 69.1985 27.048 70.7985 27.048C72.3985 27.048 73.5932 26.6267 74.3825 25.784C75.1825 24.9413 75.5825 23.5813 75.5825 21.704V7.32H80.6705V21.192C80.6705 23.464 80.3238 25.352 79.6305 26.856C78.9372 28.3493 77.8598 29.464 76.3985 30.2C74.9372 30.936 73.0705 31.304 70.7985 31.304ZM83.5367 31V7.848C84.2514 7.688 85.0141 7.54933 85.8247 7.432C86.6354 7.304 87.4727 7.208 88.3367 7.144C89.2007 7.06933 90.0701 7.032 90.9447 7.032C94.3474 7.032 96.9074 7.65067 98.6248 8.888C100.342 10.1147 101.201 12.0347 101.201 14.648C101.201 16.3333 100.795 17.7467 99.9847 18.888C99.1741 20.0187 98.0167 20.872 96.5127 21.448C95.0194 22.024 93.2327 22.312 91.1527 22.312C90.6834 22.312 90.2514 22.3067 89.8567 22.296C89.4621 22.2747 89.0567 22.2533 88.6407 22.232V31H83.5367ZM97.4727 31L89.8567 20.056H95.4247L103.153 31H97.4727ZM91.2487 18.44C92.9661 18.44 94.2407 18.1413 95.0727 17.544C95.9047 16.9467 96.3207 15.9813 96.3207 14.648C96.3207 13.7733 96.1447 13.0587 95.7927 12.504C95.4407 11.9387 94.9074 11.5227 94.1927 11.256C93.4781 10.9893 92.5714 10.856 91.4727 10.856C90.9287 10.856 90.4274 10.8773 89.9687 10.92C89.5101 10.9627 89.0674 11.0267 88.6407 11.112V18.312C88.9501 18.3333 89.2381 18.36 89.5047 18.392C89.7821 18.4133 90.0594 18.4293 90.3367 18.44C90.6247 18.44 90.9287 18.44 91.2487 18.44ZM110.991 31.272C110.341 31.272 109.626 31.2507 108.847 31.208C108.079 31.176 107.301 31.1227 106.511 31.048C105.733 30.984 105.002 30.904 104.319 30.808V7.848C105.055 7.688 105.845 7.54933 106.687 7.432C107.53 7.304 108.394 7.208 109.279 7.144C110.175 7.06933 111.055 7.032 111.919 7.032C114.266 7.032 116.181 7.27733 117.663 7.768C119.157 8.248 120.255 8.97867 120.959 9.96C121.663 10.9307 122.015 12.152 122.015 13.624C122.015 14.4987 121.845 15.304 121.503 16.04C121.173 16.7653 120.687 17.3787 120.047 17.88C119.407 18.3813 118.629 18.7227 117.711 18.904L117.727 18.696C119.231 18.9093 120.426 19.4907 121.311 20.44C122.207 21.3787 122.655 22.6853 122.655 24.36C122.655 25.4587 122.447 26.44 122.031 27.304C121.615 28.1573 120.949 28.8827 120.031 29.48C119.114 30.0667 117.909 30.5147 116.415 30.824C114.933 31.1227 113.125 31.272 110.991 31.272ZM112.383 27.48C113.77 27.48 114.858 27.3573 115.647 27.112C116.447 26.8667 117.013 26.4987 117.343 26.008C117.685 25.5173 117.855 24.8933 117.855 24.136C117.855 22.9947 117.498 22.1627 116.783 21.64C116.079 21.1067 114.917 20.84 113.295 20.84H108.847V16.952H112.799C113.855 16.952 114.698 16.84 115.327 16.616C115.967 16.3813 116.426 16.04 116.703 15.592C116.991 15.144 117.135 14.5787 117.135 13.896C117.135 12.8187 116.794 12.04 116.111 11.56C115.429 11.0693 114.25 10.824 112.575 10.824C111.967 10.824 111.407 10.8507 110.895 10.904C110.383 10.9467 109.882 11.0107 109.391 11.096V27.336C109.935 27.3893 110.442 27.4267 110.911 27.448C111.381 27.4693 111.871 27.48 112.383 27.48ZM124.352 31V7.32H129.552V31H124.352ZM138.46 31.304C137.319 31.304 136.172 31.2133 135.02 31.032C133.879 30.8613 132.823 30.616 131.852 30.296V26.072C132.524 26.296 133.239 26.488 133.996 26.648C134.754 26.7973 135.511 26.9147 136.268 27C137.036 27.0853 137.762 27.128 138.444 27.128C140.034 27.128 141.159 26.888 141.82 26.408C142.482 25.9173 142.812 25.2347 142.812 24.36C142.812 23.624 142.567 23.048 142.076 22.632C141.596 22.216 140.695 21.8373 139.372 21.496L137.58 21.032C135.511 20.5093 133.943 19.6987 132.876 18.6C131.82 17.4907 131.292 16.0293 131.292 14.216C131.292 11.9547 132.108 10.1893 133.74 8.92C135.383 7.65067 137.852 7.016 141.148 7.016C142.215 7.016 143.228 7.08 144.188 7.208C145.159 7.32533 146.018 7.49067 146.764 7.704V11.928C146.007 11.6933 145.164 11.512 144.236 11.384C143.308 11.256 142.375 11.192 141.436 11.192C140.199 11.192 139.218 11.3093 138.492 11.544C137.767 11.768 137.244 12.088 136.924 12.504C136.615 12.92 136.46 13.4 136.46 13.944C136.46 14.6373 136.674 15.1813 137.1 15.576C137.527 15.9707 138.327 16.328 139.5 16.648L141.276 17.112C142.812 17.4853 144.076 17.9813 145.068 18.6C146.06 19.208 146.791 19.96 147.26 20.856C147.74 21.7413 147.98 22.792 147.98 24.008C147.98 25.5227 147.602 26.8293 146.844 27.928C146.098 29.016 145.015 29.8533 143.596 30.44C142.178 31.016 140.466 31.304 138.46 31.304Z" fill="url(#paint0_linear_106_4829)"/>
<path d="M18.9974 0.5H37.5V18.9951C37.4845 23.8981 35.5299 28.5959 32.0629 32.0629C28.5959 35.5299 23.8981 37.4845 18.9951 37.5H0.5V18.9974C0.514828 14.0962 2.46841 9.39987 5.93414 5.93414C9.39987 2.46841 14.0962 0.514828 18.9974 0.5Z" stroke="url(#paint1_linear_106_4829)"/>
<path fill-rule="evenodd" clip-rule="evenodd" d="M13.0222 16.4498V30.3429C13.0222 31.8537 12.4221 33.3027 11.3537 34.371C10.2854 35.4394 8.83643 36.0396 7.32558 36.0396H7.19825V16.4498C7.19668 14.6036 7.61551 12.7812 8.42297 11.1209C9.23043 9.46063 10.4053 8.00599 11.8586 6.86729C13.3118 5.72859 15.0053 4.93573 16.8105 4.54883C18.6157 4.16193 20.4853 4.19115 22.2776 4.63426C19.6351 5.2838 17.2869 6.80108 15.6089 8.94326C13.9309 11.0854 13.0201 13.7286 13.0222 16.4498Z" fill="url(#paint2_linear_106_4829)"/>
<path fill-rule="evenodd" clip-rule="evenodd" d="M19.3716 10.0997C22.0921 10.1018 24.7337 11.0147 26.8751 12.6927C29.0165 14.3707 30.5345 16.7173 31.1871 19.3584C31.9532 16.2251 31.4459 12.9158 29.7764 10.1558C28.1068 7.39581 25.4112 5.41026 22.2802 4.63428C19.6371 5.28317 17.2882 6.80018 15.6095 8.94241C13.9309 11.0846 13.0195 13.7282 13.0215 16.4498C13.0189 15.6129 13.1817 14.7838 13.5008 14.0102C13.8198 13.2365 14.2887 12.5336 14.8804 11.9418C15.4721 11.3501 16.1751 10.8812 16.9487 10.5622C17.7224 10.2432 18.5515 10.0803 19.3884 10.083L19.3716 10.0997Z" fill="url(#paint3_linear_106_4829)"/>
<path fill-rule="evenodd" clip-rule="evenodd" d="M31.1875 19.3588C30.5386 16.7157 29.0216 14.3668 26.8794 12.6881C24.7372 11.0094 22.0936 10.0981 19.372 10.1001C21.0606 10.1001 22.68 10.7709 23.8741 11.9649C25.0681 13.1589 25.7389 14.7784 25.7389 16.4669C25.7352 19.188 24.8194 21.8294 23.138 23.9688C21.4566 26.1083 19.1065 27.6223 16.4634 28.2691C19.5972 29.0351 22.9069 28.5273 25.667 26.8571C28.4271 25.1868 30.4123 22.4904 31.1875 19.3588Z" fill="url(#paint4_linear_106_4829)"/>
<path fill-rule="evenodd" clip-rule="evenodd" d="M19.3718 22.7868C18.5349 22.7894 17.7058 22.6265 16.9321 22.3075C16.1585 21.9885 15.4555 21.5196 14.8638 20.9279C14.2721 20.3361 13.8032 19.6332 13.4842 18.8595C13.1651 18.0859 13.0023 17.2568 13.0049 16.4199V26.8079C14.0714 27.4603 15.2322 27.9441 16.4464 28.2421C19.0878 27.5958 21.4366 26.0832 23.1179 23.9458C24.7991 21.8085 25.7159 19.1695 25.7218 16.4501C25.7218 18.1387 25.0511 19.7581 23.857 20.9521C22.663 22.1461 21.0436 22.8169 19.355 22.8169L19.3718 22.7868Z" fill="url(#paint5_linear_106_4829)"/>
<defs>
<linearGradient id="paint0_linear_106_4829" x1="88.0932" y1="5.4" x2="88.6316" y2="33.1983" gradientUnits="userSpaceOnUse">
<stop offset="0.00992772" stop-color="#1B66B0"/>
<stop offset="1" stop-color="#323586"/>
</linearGradient>
<linearGradient id="paint1_linear_106_4829" x1="19" y1="-4.95652" x2="17.5543" y2="53.9022" gradientUnits="userSpaceOnUse">
<stop stop-color="#333485"/>
<stop offset="0.0001" stop-color="#186DB6"/>
<stop offset="1" stop-color="#333283"/>
</linearGradient>
<linearGradient id="paint2_linear_106_4829" x1="7.2016" y1="20.1593" x2="22.281" y2="20.1593" gradientUnits="userSpaceOnUse">
<stop stop-color="#48C0EF"/>
<stop offset="0.5" stop-color="#00A0E2"/>
<stop offset="1" stop-color="#008BD1"/>
</linearGradient>
<linearGradient id="paint3_linear_106_4829" x1="13.0215" y1="11.9964" x2="31.5356" y2="11.9964" gradientUnits="userSpaceOnUse">
<stop stop-color="#5E4F9A"/>
<stop offset="0.5" stop-color="#312782"/>
<stop offset="1" stop-color="#453969"/>
</linearGradient>
<linearGradient id="paint4_linear_106_4829" x1="16.4634" y1="19.3588" x2="31.1875" y2="19.3588" gradientUnits="userSpaceOnUse">
<stop stop-color="#D86FA8"/>
<stop offset="0.5" stop-color="#C8067D"/>
<stop offset="1" stop-color="#A1197F"/>
</linearGradient>
<linearGradient id="paint5_linear_106_4829" x1="13.0217" y1="22.3612" x2="25.7218" y2="22.3612" gradientUnits="userSpaceOnUse">
<stop stop-color="#FFEAAA"/>
<stop offset="0.5" stop-color="#FDCA00"/>
<stop offset="1" stop-color="#F7AD00"/>
</linearGradient>
</defs>
</svg>
